<mxfile host="app.diagrams.net" agent="Mozilla/5.0 (Macintosh; Intel Mac OS X 10_15_7) AppleWebKit/537.36 (KHTML, like Gecko) Chrome/134.0.0.0 Safari/537.36" version="26.1.0">
  <diagram name="Page-1" id="toyqWjw3-tFAEOU__Un6">
    <mxGraphModel grid="1" page="1" gridSize="10" guides="1" tooltips="1" connect="1" arrows="1" fold="1" pageScale="1" pageWidth="827" pageHeight="1169" math="0" shadow="0">
      <root>
        <mxCell id="0" />
        <mxCell id="1" parent="0" />
        <mxCell id="Bf6PE_DJ97KZ6822lBHe-4" value="" style="rounded=0;whiteSpace=wrap;html=1;dashed=1;" vertex="1" parent="1">
          <mxGeometry x="-60" y="20" width="120" height="580" as="geometry" />
        </mxCell>
        <mxCell id="HnpPnAv44DMsRuAQf5Vg-59" value="Regional Integration Engine - Enterprise Service Bus" style="rounded=0;whiteSpace=wrap;html=1;verticalAlign=top;" vertex="1" parent="1">
          <mxGeometry x="70" y="100" width="670" height="480" as="geometry" />
        </mxCell>
        <mxCell id="SpyZkMs1lM7mogaTS6Ty-18" style="edgeStyle=orthogonalEdgeStyle;rounded=0;orthogonalLoop=1;jettySize=auto;html=1;entryX=0;entryY=0.5;entryDx=0;entryDy=0;exitX=1;exitY=0.5;exitDx=0;exitDy=0;exitPerimeter=0;" edge="1" parent="1" source="SpyZkMs1lM7mogaTS6Ty-21" target="HnpPnAv44DMsRuAQf5Vg-40">
          <mxGeometry relative="1" as="geometry" />
        </mxCell>
        <mxCell id="SpyZkMs1lM7mogaTS6Ty-4" value="" style="rounded=0;whiteSpace=wrap;html=1;strokeColor=none;" vertex="1" parent="1">
          <mxGeometry x="-320" y="175" width="60" height="70" as="geometry" />
        </mxCell>
        <mxCell id="SpyZkMs1lM7mogaTS6Ty-20" style="edgeStyle=orthogonalEdgeStyle;rounded=0;orthogonalLoop=1;jettySize=auto;html=1;" edge="1" parent="1" source="SpyZkMs1lM7mogaTS6Ty-11" target="SpyZkMs1lM7mogaTS6Ty-19">
          <mxGeometry relative="1" as="geometry" />
        </mxCell>
        <mxCell id="Bf6PE_DJ97KZ6822lBHe-6" value="" style="edgeStyle=orthogonalEdgeStyle;rounded=0;orthogonalLoop=1;jettySize=auto;html=1;" edge="1" parent="1" source="SpyZkMs1lM7mogaTS6Ty-11" target="SpyZkMs1lM7mogaTS6Ty-12">
          <mxGeometry relative="1" as="geometry" />
        </mxCell>
        <mxCell id="SpyZkMs1lM7mogaTS6Ty-11" value="&lt;font style=&quot;font-size: 16px;&quot;&gt;Accept Message &lt;br&gt;(Validation)&lt;/font&gt;" style="strokeWidth=2;dashed=0;align=center;fontSize=8;shape=rect;fillColor=#c0f5a9;verticalLabelPosition=bottom;verticalAlign=top;html=1;" vertex="1" parent="1">
          <mxGeometry x="210" y="180" width="110" height="60" as="geometry" />
        </mxCell>
        <mxCell id="SpyZkMs1lM7mogaTS6Ty-12" value="&lt;font style=&quot;font-size: 16px;&quot;&gt;Rejected Messages&lt;/font&gt;" style="strokeWidth=1;outlineConnect=0;dashed=0;align=center;html=1;fontSize=8;shape=mxgraph.eip.deadLetterChannel;verticalLabelPosition=bottom;labelBackgroundColor=#ffffff;verticalAlign=top;" vertex="1" parent="1">
          <mxGeometry x="215" y="310" width="100" height="20" as="geometry" />
        </mxCell>
        <mxCell id="SpyZkMs1lM7mogaTS6Ty-15" style="edgeStyle=orthogonalEdgeStyle;rounded=0;orthogonalLoop=1;jettySize=auto;html=1;entryX=0;entryY=0;entryDx=50;entryDy=0;entryPerimeter=0;" edge="1" parent="1" source="SpyZkMs1lM7mogaTS6Ty-11" target="SpyZkMs1lM7mogaTS6Ty-12">
          <mxGeometry relative="1" as="geometry" />
        </mxCell>
        <mxCell id="SpyZkMs1lM7mogaTS6Ty-17" value="Fail" style="edgeLabel;html=1;align=center;verticalAlign=middle;resizable=0;points=[];" connectable="0" vertex="1" parent="SpyZkMs1lM7mogaTS6Ty-15">
          <mxGeometry x="0.0278" y="-3" relative="1" as="geometry">
            <mxPoint x="18" y="25" as="offset" />
          </mxGeometry>
        </mxCell>
        <mxCell id="SpyZkMs1lM7mogaTS6Ty-19" value="&lt;font style=&quot;font-size: 16px;&quot;&gt;Distribution List&lt;/font&gt;" style="html=1;strokeWidth=2;outlineConnect=0;dashed=0;align=center;fontSize=8;fillColor=#c0f5a9;verticalLabelPosition=bottom;verticalAlign=top;shape=mxgraph.eip.recipient_list;" vertex="1" parent="1">
          <mxGeometry x="380" y="180" width="110" height="60" as="geometry" />
        </mxCell>
        <mxCell id="SpyZkMs1lM7mogaTS6Ty-21" value="&lt;span style=&quot;font-size: 16px;&quot;&gt;Transform to&amp;nbsp;&lt;/span&gt;&lt;div&gt;&lt;span style=&quot;font-size: 16px;&quot;&gt;HL7 FHIR&lt;br&gt;&lt;/span&gt;&lt;/div&gt;" style="html=1;strokeWidth=2;outlineConnect=0;dashed=0;align=center;fontSize=8;shape=mxgraph.eip.message_translator;fillColor=#c0f5a9;verticalLabelPosition=bottom;verticalAlign=top;" vertex="1" parent="1">
          <mxGeometry x="-199" y="180" width="110" height="60" as="geometry" />
        </mxCell>
        <mxCell id="SpyZkMs1lM7mogaTS6Ty-22" style="edgeStyle=orthogonalEdgeStyle;rounded=0;orthogonalLoop=1;jettySize=auto;html=1;entryX=0;entryY=0.5;entryDx=0;entryDy=0;entryPerimeter=0;" edge="1" parent="1" source="SpyZkMs1lM7mogaTS6Ty-4" target="SpyZkMs1lM7mogaTS6Ty-21">
          <mxGeometry relative="1" as="geometry" />
        </mxCell>
        <mxCell id="SpyZkMs1lM7mogaTS6Ty-45" style="edgeStyle=orthogonalEdgeStyle;rounded=0;orthogonalLoop=1;jettySize=auto;html=1;entryX=0;entryY=0.5;entryDx=0;entryDy=0;" edge="1" parent="1" source="SpyZkMs1lM7mogaTS6Ty-23" target="SpyZkMs1lM7mogaTS6Ty-38">
          <mxGeometry relative="1" as="geometry" />
        </mxCell>
        <mxCell id="SpyZkMs1lM7mogaTS6Ty-23" value="&lt;font style=&quot;font-size: 16px;&quot;&gt;Transform to HL7 v2&lt;br&gt;&lt;/font&gt;" style="html=1;strokeWidth=2;outlineConnect=0;dashed=0;align=center;fontSize=8;shape=mxgraph.eip.message_translator;fillColor=#c0f5a9;verticalLabelPosition=bottom;verticalAlign=top;" vertex="1" parent="1">
          <mxGeometry x="570" y="180" width="110" height="60" as="geometry" />
        </mxCell>
        <mxCell id="SpyZkMs1lM7mogaTS6Ty-24" style="edgeStyle=orthogonalEdgeStyle;rounded=0;orthogonalLoop=1;jettySize=auto;html=1;entryX=0;entryY=0.5;entryDx=0;entryDy=0;entryPerimeter=0;exitX=1;exitY=0.5;exitDx=0;exitDy=0;exitPerimeter=0;" edge="1" parent="1" source="SpyZkMs1lM7mogaTS6Ty-19" target="SpyZkMs1lM7mogaTS6Ty-23">
          <mxGeometry relative="1" as="geometry">
            <Array as="points">
              <mxPoint x="550" y="210" />
              <mxPoint x="550" y="210" />
            </Array>
          </mxGeometry>
        </mxCell>
        <mxCell id="SpyZkMs1lM7mogaTS6Ty-38" value="" style="rounded=0;whiteSpace=wrap;html=1;strokeColor=none;" vertex="1" parent="1">
          <mxGeometry x="770" y="185" width="90" height="50" as="geometry" />
        </mxCell>
        <mxCell id="GK4ACq8TZ_gD5xzpB5Gy-1" value="" style="edgeStyle=orthogonalEdgeStyle;rounded=0;exitX=0;exitY=0.5;endArrow=none;dashed=0;html=1;strokeColor=#808080;strokeWidth=2;" edge="1" parent="1" source="GK4ACq8TZ_gD5xzpB5Gy-3" target="GK4ACq8TZ_gD5xzpB5Gy-2">
          <mxGeometry relative="1" as="geometry" />
        </mxCell>
        <mxCell id="GK4ACq8TZ_gD5xzpB5Gy-2" value="" style="strokeWidth=2;dashed=0;align=center;fontSize=8;shape=ellipse;fillColor=#808080;strokeColor=none;" vertex="1" parent="1">
          <mxGeometry x="-302" y="190" width="12" height="12" as="geometry" />
        </mxCell>
        <mxCell id="GK4ACq8TZ_gD5xzpB5Gy-3" value="C" style="strokeWidth=2;dashed=0;align=center;fontSize=8;shape=rect;fillColor=#FF8080;fontStyle=1;whiteSpace=wrap;html=1;" vertex="1" parent="1">
          <mxGeometry x="-286" y="208" width="12" height="12" as="geometry" />
        </mxCell>
        <mxCell id="GK4ACq8TZ_gD5xzpB5Gy-15" value="" style="edgeStyle=orthogonalEdgeStyle;rounded=0;exitX=0;exitY=0.5;endArrow=none;dashed=0;html=1;strokeColor=#808080;strokeWidth=2;" edge="1" parent="1" source="GK4ACq8TZ_gD5xzpB5Gy-17" target="GK4ACq8TZ_gD5xzpB5Gy-16">
          <mxGeometry relative="1" as="geometry" />
        </mxCell>
        <mxCell id="GK4ACq8TZ_gD5xzpB5Gy-16" value="" style="strokeWidth=2;dashed=0;align=center;fontSize=8;shape=ellipse;fillColor=#808080;strokeColor=none;" vertex="1" parent="1">
          <mxGeometry x="797" y="190" width="12" height="12" as="geometry" />
        </mxCell>
        <mxCell id="GK4ACq8TZ_gD5xzpB5Gy-17" value="C" style="strokeWidth=2;dashed=0;align=center;fontSize=8;shape=rect;fillColor=#FF8080;fontStyle=1;whiteSpace=wrap;html=1;" vertex="1" parent="1">
          <mxGeometry x="813" y="208" width="12" height="12" as="geometry" />
        </mxCell>
        <mxCell id="HnpPnAv44DMsRuAQf5Vg-53" style="edgeStyle=orthogonalEdgeStyle;rounded=0;orthogonalLoop=1;jettySize=auto;html=1;" edge="1" parent="1" source="HnpPnAv44DMsRuAQf5Vg-10" target="HnpPnAv44DMsRuAQf5Vg-52">
          <mxGeometry relative="1" as="geometry" />
        </mxCell>
        <mxCell id="Bf6PE_DJ97KZ6822lBHe-1" style="edgeStyle=orthogonalEdgeStyle;rounded=0;orthogonalLoop=1;jettySize=auto;html=1;entryX=1;entryY=0.5;entryDx=0;entryDy=0;exitX=0;exitY=0.75;exitDx=0;exitDy=0;exitPerimeter=0;" edge="1" parent="1" source="HnpPnAv44DMsRuAQf5Vg-10" target="HnpPnAv44DMsRuAQf5Vg-45">
          <mxGeometry relative="1" as="geometry">
            <Array as="points">
              <mxPoint x="290" y="420" />
              <mxPoint x="290" y="526" />
            </Array>
          </mxGeometry>
        </mxCell>
        <mxCell id="Bf6PE_DJ97KZ6822lBHe-2" value="preferred" style="edgeLabel;html=1;align=center;verticalAlign=middle;resizable=0;points=[];" connectable="0" vertex="1" parent="Bf6PE_DJ97KZ6822lBHe-1">
          <mxGeometry x="0.1072" y="-2" relative="1" as="geometry">
            <mxPoint x="-1" as="offset" />
          </mxGeometry>
        </mxCell>
        <mxCell id="HnpPnAv44DMsRuAQf5Vg-10" value="&lt;font style=&quot;font-size: 16px;&quot;&gt;Distribution List&lt;/font&gt;" style="html=1;strokeWidth=2;outlineConnect=0;dashed=0;align=center;fontSize=8;fillColor=#c0f5a9;verticalLabelPosition=bottom;verticalAlign=top;shape=mxgraph.eip.recipient_list;" vertex="1" parent="1">
          <mxGeometry x="380" y="375" width="110" height="60" as="geometry" />
        </mxCell>
        <mxCell id="HnpPnAv44DMsRuAQf5Vg-31" style="edgeStyle=orthogonalEdgeStyle;rounded=0;orthogonalLoop=1;jettySize=auto;html=1;" edge="1" parent="1" source="HnpPnAv44DMsRuAQf5Vg-11" target="HnpPnAv44DMsRuAQf5Vg-26">
          <mxGeometry relative="1" as="geometry" />
        </mxCell>
        <mxCell id="HnpPnAv44DMsRuAQf5Vg-11" value="&lt;span style=&quot;font-size: 16px;&quot;&gt;Transform from&amp;nbsp;&lt;/span&gt;&lt;div&gt;&lt;span style=&quot;font-size: 16px;&quot;&gt;HL7 FHIR&lt;br&gt;&lt;/span&gt;&lt;/div&gt;" style="html=1;strokeWidth=2;outlineConnect=0;dashed=0;align=center;fontSize=8;shape=mxgraph.eip.message_translator;fillColor=#c0f5a9;verticalLabelPosition=bottom;verticalAlign=top;" vertex="1" parent="1">
          <mxGeometry x="-199" y="496.5" width="110" height="60" as="geometry" />
        </mxCell>
        <mxCell id="HnpPnAv44DMsRuAQf5Vg-35" style="edgeStyle=orthogonalEdgeStyle;rounded=0;orthogonalLoop=1;jettySize=auto;html=1;" edge="1" parent="1" source="HnpPnAv44DMsRuAQf5Vg-14" target="HnpPnAv44DMsRuAQf5Vg-10">
          <mxGeometry relative="1" as="geometry" />
        </mxCell>
        <mxCell id="HnpPnAv44DMsRuAQf5Vg-14" value="&lt;font style=&quot;font-size: 16px;&quot;&gt;Transform to HL7 FHIR&lt;/font&gt;" style="html=1;strokeWidth=2;outlineConnect=0;dashed=0;align=center;fontSize=8;shape=mxgraph.eip.message_translator;fillColor=#c0f5a9;verticalLabelPosition=bottom;verticalAlign=top;" vertex="1" parent="1">
          <mxGeometry x="570" y="375" width="110" height="60" as="geometry" />
        </mxCell>
        <mxCell id="HnpPnAv44DMsRuAQf5Vg-16" value="" style="rounded=0;whiteSpace=wrap;html=1;strokeColor=none;" vertex="1" parent="1">
          <mxGeometry x="770" y="378.5" width="90" height="53" as="geometry" />
        </mxCell>
        <mxCell id="HnpPnAv44DMsRuAQf5Vg-23" value="" style="edgeStyle=orthogonalEdgeStyle;rounded=0;exitX=0;exitY=0.5;endArrow=none;dashed=0;html=1;strokeColor=#808080;strokeWidth=2;" edge="1" parent="1" source="HnpPnAv44DMsRuAQf5Vg-25" target="HnpPnAv44DMsRuAQf5Vg-24">
          <mxGeometry relative="1" as="geometry" />
        </mxCell>
        <mxCell id="HnpPnAv44DMsRuAQf5Vg-24" value="" style="strokeWidth=2;dashed=0;align=center;fontSize=8;shape=ellipse;fillColor=#808080;strokeColor=none;" vertex="1" parent="1">
          <mxGeometry x="793" y="391.5" width="12" height="12" as="geometry" />
        </mxCell>
        <mxCell id="HnpPnAv44DMsRuAQf5Vg-25" value="D" style="strokeWidth=2;dashed=0;align=center;fontSize=8;shape=rect;fillColor=#C7A0FF;fontStyle=1;whiteSpace=wrap;html=1;" vertex="1" parent="1">
          <mxGeometry x="809" y="409.5" width="12" height="12" as="geometry" />
        </mxCell>
        <mxCell id="HnpPnAv44DMsRuAQf5Vg-26" value="" style="rounded=0;whiteSpace=wrap;html=1;strokeColor=none;" vertex="1" parent="1">
          <mxGeometry x="-320" y="378.5" width="70" height="53" as="geometry" />
        </mxCell>
        <mxCell id="HnpPnAv44DMsRuAQf5Vg-27" value="" style="edgeStyle=orthogonalEdgeStyle;rounded=0;exitX=0;exitY=0.5;endArrow=none;dashed=0;html=1;strokeColor=#808080;strokeWidth=2;" edge="1" parent="1" source="HnpPnAv44DMsRuAQf5Vg-29" target="HnpPnAv44DMsRuAQf5Vg-28">
          <mxGeometry relative="1" as="geometry" />
        </mxCell>
        <mxCell id="HnpPnAv44DMsRuAQf5Vg-28" value="" style="strokeWidth=2;dashed=0;align=center;fontSize=8;shape=ellipse;fillColor=#808080;strokeColor=none;" vertex="1" parent="1">
          <mxGeometry x="-297" y="391.5" width="12" height="12" as="geometry" />
        </mxCell>
        <mxCell id="HnpPnAv44DMsRuAQf5Vg-29" value="D" style="strokeWidth=2;dashed=0;align=center;fontSize=8;shape=rect;fillColor=#C7A0FF;fontStyle=1;whiteSpace=wrap;html=1;" vertex="1" parent="1">
          <mxGeometry x="-281" y="409.5" width="12" height="12" as="geometry" />
        </mxCell>
        <mxCell id="HnpPnAv44DMsRuAQf5Vg-32" style="edgeStyle=orthogonalEdgeStyle;rounded=0;orthogonalLoop=1;jettySize=auto;html=1;entryX=1;entryY=0.5;entryDx=0;entryDy=0;entryPerimeter=0;" edge="1" parent="1" source="HnpPnAv44DMsRuAQf5Vg-16" target="HnpPnAv44DMsRuAQf5Vg-14">
          <mxGeometry relative="1" as="geometry" />
        </mxCell>
        <mxCell id="HnpPnAv44DMsRuAQf5Vg-33" value="GLH iGene" style="rounded=1;whiteSpace=wrap;html=1;" vertex="1" parent="1">
          <mxGeometry x="755" y="270" width="120" height="60" as="geometry" />
        </mxCell>
        <mxCell id="HnpPnAv44DMsRuAQf5Vg-34" value="NHS Trusts" style="rounded=1;whiteSpace=wrap;html=1;" vertex="1" parent="1">
          <mxGeometry x="-350" y="280" width="120" height="60" as="geometry" />
        </mxCell>
        <mxCell id="HnpPnAv44DMsRuAQf5Vg-36" value="&lt;font style=&quot;font-size: 16px;&quot;&gt;Polling Consumer&lt;/font&gt;" style="fillColor=#c0f5a9;dashed=0;outlineConnect=0;strokeWidth=2;html=1;align=center;fontSize=8;verticalLabelPosition=bottom;verticalAlign=top;shape=mxgraph.eip.polling_consumer;" vertex="1" parent="1">
          <mxGeometry x="-199" y="375" width="110" height="60" as="geometry" />
        </mxCell>
        <mxCell id="HnpPnAv44DMsRuAQf5Vg-44" style="edgeStyle=orthogonalEdgeStyle;rounded=0;orthogonalLoop=1;jettySize=auto;html=1;entryX=0;entryY=0.5;entryDx=0;entryDy=0;" edge="1" parent="1" source="HnpPnAv44DMsRuAQf5Vg-40" target="SpyZkMs1lM7mogaTS6Ty-11">
          <mxGeometry relative="1" as="geometry" />
        </mxCell>
        <mxCell id="HnpPnAv44DMsRuAQf5Vg-40" value="" style="rounded=0;whiteSpace=wrap;html=1;strokeColor=none;" vertex="1" parent="1">
          <mxGeometry x="-30" y="175" width="60" height="70" as="geometry" />
        </mxCell>
        <mxCell id="HnpPnAv44DMsRuAQf5Vg-41" value="" style="edgeStyle=orthogonalEdgeStyle;rounded=0;exitX=0;exitY=0.5;endArrow=none;dashed=0;html=1;strokeColor=#808080;strokeWidth=2;" edge="1" parent="1" source="HnpPnAv44DMsRuAQf5Vg-43" target="HnpPnAv44DMsRuAQf5Vg-42">
          <mxGeometry relative="1" as="geometry" />
        </mxCell>
        <mxCell id="HnpPnAv44DMsRuAQf5Vg-42" value="" style="strokeWidth=2;dashed=0;align=center;fontSize=8;shape=ellipse;fillColor=#808080;strokeColor=none;" vertex="1" parent="1">
          <mxGeometry x="-12" y="190" width="12" height="12" as="geometry" />
        </mxCell>
        <mxCell id="HnpPnAv44DMsRuAQf5Vg-43" value="C" style="strokeWidth=2;dashed=0;align=center;fontSize=8;shape=rect;fillColor=#FF8080;fontStyle=1;whiteSpace=wrap;html=1;" vertex="1" parent="1">
          <mxGeometry x="4" y="208" width="12" height="12" as="geometry" />
        </mxCell>
        <mxCell id="HnpPnAv44DMsRuAQf5Vg-50" style="edgeStyle=orthogonalEdgeStyle;rounded=0;orthogonalLoop=1;jettySize=auto;html=1;" edge="1" parent="1" source="HnpPnAv44DMsRuAQf5Vg-45" target="HnpPnAv44DMsRuAQf5Vg-11">
          <mxGeometry relative="1" as="geometry" />
        </mxCell>
        <mxCell id="HnpPnAv44DMsRuAQf5Vg-45" value="" style="rounded=0;whiteSpace=wrap;html=1;strokeColor=none;" vertex="1" parent="1">
          <mxGeometry x="-35" y="500" width="70" height="53" as="geometry" />
        </mxCell>
        <mxCell id="HnpPnAv44DMsRuAQf5Vg-46" value="" style="edgeStyle=orthogonalEdgeStyle;rounded=0;exitX=0;exitY=0.5;endArrow=none;dashed=0;html=1;strokeColor=#808080;strokeWidth=2;" edge="1" parent="1" source="HnpPnAv44DMsRuAQf5Vg-48" target="HnpPnAv44DMsRuAQf5Vg-47">
          <mxGeometry relative="1" as="geometry" />
        </mxCell>
        <mxCell id="HnpPnAv44DMsRuAQf5Vg-47" value="" style="strokeWidth=2;dashed=0;align=center;fontSize=8;shape=ellipse;fillColor=#808080;strokeColor=none;" vertex="1" parent="1">
          <mxGeometry x="-12" y="513" width="12" height="12" as="geometry" />
        </mxCell>
        <mxCell id="HnpPnAv44DMsRuAQf5Vg-48" value="D" style="strokeWidth=2;dashed=0;align=center;fontSize=8;shape=rect;fillColor=#C7A0FF;fontStyle=1;whiteSpace=wrap;html=1;" vertex="1" parent="1">
          <mxGeometry x="4" y="531" width="12" height="12" as="geometry" />
        </mxCell>
        <mxCell id="HnpPnAv44DMsRuAQf5Vg-55" style="edgeStyle=orthogonalEdgeStyle;rounded=0;orthogonalLoop=1;jettySize=auto;html=1;entryX=1;entryY=0.5;entryDx=0;entryDy=0;" edge="1" parent="1" source="HnpPnAv44DMsRuAQf5Vg-52" target="HnpPnAv44DMsRuAQf5Vg-45">
          <mxGeometry relative="1" as="geometry">
            <Array as="points">
              <mxPoint x="140" y="527" />
            </Array>
          </mxGeometry>
        </mxCell>
        <mxCell id="HnpPnAv44DMsRuAQf5Vg-52" value="&lt;font style=&quot;font-size: 16px;&quot;&gt;Message Queue&lt;/font&gt;" style="html=1;strokeWidth=2;outlineConnect=0;dashed=0;align=center;fontSize=8;verticalLabelPosition=bottom;verticalAlign=top;shape=mxgraph.eip.message_store;fillColor=#c0f5a9" vertex="1" parent="1">
          <mxGeometry x="90" y="375" width="110" height="60" as="geometry" />
        </mxCell>
        <mxCell id="HnpPnAv44DMsRuAQf5Vg-54" style="edgeStyle=orthogonalEdgeStyle;rounded=0;orthogonalLoop=1;jettySize=auto;html=1;entryX=0;entryY=0.5;entryDx=0;entryDy=0;entryPerimeter=0;" edge="1" parent="1" source="HnpPnAv44DMsRuAQf5Vg-36" target="HnpPnAv44DMsRuAQf5Vg-52">
          <mxGeometry relative="1" as="geometry" />
        </mxCell>
        <mxCell id="HnpPnAv44DMsRuAQf5Vg-57" style="edgeStyle=orthogonalEdgeStyle;rounded=0;orthogonalLoop=1;jettySize=auto;html=1;entryX=0.5;entryY=0;entryDx=0;entryDy=0;entryPerimeter=0;" edge="1" parent="1" source="SpyZkMs1lM7mogaTS6Ty-12" target="HnpPnAv44DMsRuAQf5Vg-10">
          <mxGeometry relative="1" as="geometry">
            <Array as="points">
              <mxPoint x="435" y="320" />
            </Array>
          </mxGeometry>
        </mxCell>
        <mxCell id="Bf6PE_DJ97KZ6822lBHe-3" value="OAuth2 &lt;br&gt;Authorisation" style="shape=image;html=1;verticalAlign=top;verticalLabelPosition=bottom;labelBackgroundColor=#ffffff;imageAspect=0;aspect=fixed;image=https://cdn4.iconfinder.com/data/icons/ios-web-user-interface-multi-circle-flat-vol-3/512/Authorisation_lock_padlock_password_privacy_safe_security-128.png" vertex="1" parent="1">
          <mxGeometry x="-28" y="42" width="58" height="58" as="geometry" />
        </mxCell>
      </root>
    </mxGraphModel>
  </diagram>
</mxfile>
